<?xml version="1.0" encoding="utf-8"?>
<!-- Generator: Adobe Illustrator 16.0.0, SVG Export Plug-In . SVG Version: 6.00 Build 0)  -->
<!DOCTYPE svg PUBLIC "-//W3C//DTD SVG 1.1//EN" "http://www.w3.org/Graphics/SVG/1.1/DTD/svg11.dtd">
<svg version="1.1"
	 id="svg3015" xmlns:dc="http://purl.org/dc/elements/1.1/" xmlns:rdf="http://www.w3.org/1999/02/22-rdf-syntax-ns#" xmlns:svg="http://www.w3.org/2000/svg" xmlns:cc="http://creativecommons.org/ns#" xmlns:sodipodi="http://sodipodi.sourceforge.net/DTD/sodipodi-0.dtd" xmlns:inkscape="http://www.inkscape.org/namespaces/inkscape" sodipodi:docname="New document 4" inkscape:version="0.48.3.1 r9886"
	 xmlns="http://www.w3.org/2000/svg" xmlns:xlink="http://www.w3.org/1999/xlink" x="0px" y="0px" width="212.695px"
	 height="212.398px" viewBox="0 0 212.695 212.398" enable-background="new 0 0 212.695 212.398" xml:space="preserve">
<sodipodi:namedview  inkscape:cx="364.15038" fit-margin-top="0" borderopacity="1.0" inkscape:cy="-302.41579" pagecolor="#ffffff" showgrid="false" fit-margin-left="0" inkscape:zoom="0.35" bordercolor="#666666" id="base" inkscape:window-maximized="1" inkscape:window-x="-8" inkscape:window-y="-8" inkscape:window-height="1002" fit-margin-right="0" inkscape:document-units="px" inkscape:pageopacity="0.0" inkscape:window-width="1280" inkscape:pageshadow="2" inkscape:current-layer="layer1" fit-margin-bottom="0">
	</sodipodi:namedview>
<g id="layer1" transform="translate(-10.849616,-17.548134)" inkscape:label="Layer 1" inkscape:groupmode="layer">
	<path id="path3036" inkscape:connector-curvature="0" fill="#FFFFFF" d="M108.143,229.63c-3.955-1.097-4.761-2.526-4.118-7.307
		c0.335-2.492,0.724-5.383,0.864-6.422c0.215-1.598-1.214-2.27-9.246-4.348c-13.552-3.507-13.039-3.584-14.901,2.236
		c-1.357,4.242-2.019,5.049-4.362,5.318c-1.519,0.174-5.173-0.787-8.12-2.135c-5.438-2.49-13.617-9.064-13.617-10.946
		c0-0.567,1.633-3.024,3.628-5.46l3.629-4.428l-7.879-7.92c-4.333-4.354-8.353-7.921-8.933-7.924s-2.58,1.569-4.446,3.494
		c-1.866,1.926-4.12,3.5-5.008,3.5c-4.829,0-16.113-17.893-14.497-22.986c0.299-0.943,2.931-2.413,6.116-3.417
		c6.377-2.011,6.156-0.501,2.321-15.847c-2.423-9.695-2.578-9.809-10.389-7.641c-3.56,0.989-4.13,0.886-5.682-1.031
		c-3.532-4.361-3.543-20.878-0.018-25.047c1.559-1.843,1.996-1.876,7.466-0.57c4.377,1.045,5.917,1.098,6.243,0.213
		c0.756-2.051,4.663-17.065,5.169-19.866c0.456-2.521,0.133-2.794-5.117-4.32c-4.413-1.283-5.732-2.141-6.208-4.039
		c-1.232-4.909,9.252-22.449,13.418-22.449c0.885,0,3.546,1.901,5.914,4.225l4.305,4.226l8.666-8.665l8.665-8.666l-4.183-4.538
		c-2.301-2.496-4.183-5.2-4.183-6.01c0-4.066,16.074-14.039,21.6-13.401c2.447,0.283,3.052,1.021,4.371,5.328
		c2.338,7.642,2.327,7.634,8.426,5.536c2.945-1.013,7.877-2.366,10.961-3.006c3.084-0.64,5.82-1.507,6.079-1.927
		c0.259-0.419-0.136-3.067-0.879-5.883c-1.731-6.563-0.815-7.854,6.622-9.336c6.816-1.358,15.972-0.414,18.774,1.936
		c1.74,1.458,1.879,2.211,1.05,5.681c-1.851,7.737-1.61,8.232,4.62,9.526c3.094,0.642,8.018,1.991,10.939,2.996
		c5.906,2.032,6.766,1.652,7.975-3.528c1.004-4.299,3.236-7.494,5.234-7.494c5.264,0.002,21.228,10.336,21.228,13.741
		c0,0.844-1.854,3.546-4.12,6.004l-4.121,4.47l8.293,8.335c9.045,9.093,9.086,9.103,14.385,3.535
		c1.615-1.697,3.49-3.086,4.166-3.086c3.414,0,14.396,16.69,14.396,21.879c0,2.363-0.99,3.086-7,5.107
		c-3.443,1.158-4.464,1.983-4.35,3.514c0.213,2.829,4.555,19.853,5.284,20.72c0.333,0.396,2.992,0.091,5.907-0.679
		c4.905-1.293,5.441-1.259,7.158,0.458c2.344,2.343,3.443,9.49,2.642,17.16c-0.88,8.415-2.035,10.225-5.983,9.369
		c-1.736-0.376-4.732-0.917-6.658-1.202l-3.5-0.519l-2.337,9.346c-3.344,13.367-3.386,13.01,1.696,14.502
		c8.404,2.468,8.946,4.736,3.59,15.012c-6.369,12.219-9.605,13.86-15.449,7.832c-1.865-1.925-3.783-3.5-4.264-3.5
		c-0.953,0-16.736,15.652-16.736,16.599c0,0.321,1.594,2.444,3.541,4.72c2.033,2.375,3.416,4.98,3.25,6.123
		c-0.661,4.53-19.242,15.011-22.73,12.82c-0.793-0.498-2.145-3.122-3.004-5.833c-1.847-5.829-1.918-5.839-15.793-2.29
		c-10.191,2.605-10.268,2.702-8.172,10.249c0.943,3.4,0.83,4.136-0.904,5.87c-1.615,1.615-3.621,2.043-10.834,2.31
		C114.126,230.037,109.243,229.935,108.143,229.63L108.143,229.63z M110.41,167.875c0.238-23.031,0.083-26.093-1.405-27.737
		c-0.919-1.016-2.134-1.848-2.699-1.848s-11.063,5.738-23.33,12.75c-14.319,8.186-22.309,13.32-22.318,14.344
		c-0.021,2.258,10.444,12.697,17.257,17.215c7.417,4.918,15.703,8.568,23.229,10.23C110.923,194.99,110.107,197.186,110.41,167.875z
		 M133.643,192.735c13.37-3.141,29.266-12.83,37.468-22.839c3.01-3.675,3.537-4.894,2.604-6.02
		c-1.564-1.885-43.285-25.586-45.039-25.586c-0.756,0-2.197,0.745-3.203,1.655c-1.682,1.521-1.829,3.727-1.829,27.333
		c0,14.123,0.3,25.979,0.667,26.346C125.248,194.562,126.287,194.462,133.643,192.735z M77.143,139.415
		c29.591-17.16,29.622-14.883-0.427-32.171C59.7,97.454,53.973,94.602,52.979,95.426c-4.727,3.923-7.768,29.572-5.029,42.422
		c1.876,8.805,4.193,14.461,5.891,14.384C54.558,152.199,65.043,146.431,77.143,139.415z M183.63,148.04
		c2.941-6.666,4.315-16.973,3.75-28.129c-0.546-10.79-3.771-23.312-6.249-24.263c-1.282-0.492-40.151,20.93-44.784,24.681
		c-1.449,1.174-1.833,2.313-1.383,4.108c0.494,1.97,5.134,5.094,22.401,15.083c11.978,6.929,22.364,12.638,23.083,12.685
		C181.167,152.252,182.599,150.378,183.63,148.04L183.63,148.04z M120.143,123.791c0-2.664-0.335-3-2.986-3
		c-2.086,0-3.091,0.545-3.335,1.808c-0.625,3.244,0.642,4.846,3.565,4.509C119.712,126.84,120.143,126.322,120.143,123.791
		L120.143,123.791z M108.709,108.256c1.837-0.983,1.935-2.358,1.935-27.5V54.291h-3.057c-5.348,0-12.176,2.088-21.724,6.645
		c-7.402,3.533-10.919,6.016-17.375,12.267c-4.544,4.4-7.902,8.441-7.656,9.213c0.398,1.25,43.219,26.703,45.127,26.823
		C106.407,109.267,107.645,108.825,108.709,108.256z M151.142,96.427c12.099-7.02,22.126-13.429,22.283-14.241
		c0.41-2.13-10.179-12.495-17.782-17.408c-9.931-6.416-26.446-12.171-30.78-10.727c-0.919,0.307-1.22,6.911-1.22,26.774
		c0,24.056,0.153,26.456,1.75,27.386c0.962,0.561,2.2,1.01,2.75,0.999C128.693,109.199,139.042,103.446,151.142,96.427z"/>
</g>
</svg>
