<svg id="Layer_1" xmlns="http://www.w3.org/2000/svg" viewBox="0 0 469.7 92.7"><style>.st0{fill:#010101}.st1{fill:#fff}.st2{fill:url(#SVGID_1_)}.st3{fill:url(#SVGID_2_)}.st4{fill:#88181a}.st5{fill:#481417}.st6{fill:#e62227}</style><path class="st0" d="M103.1 31.8l-8.8-2.3-8.1-1.8-7.2-1.9-4.5-1-3.1-8.1-8.8-2.3-8.2-1.8-7.2-1.9-8.1-1.8L31.8 7 18.1 4l.1.2-2.3-.5-5.5-1.4L0 0l14.9 38.6 7.3 1.6 5.5 1.5 5.4 1.2 4.6 11.8 9.6 2.1 7.2 1.9 8.1 1.8 3.6.9 3.2 8.4 9.6 2.1 7.3 1.9 8.1 1.8 7.2 1.9 8.2 1.8 12.9 3.4z"/><path class="st1" d="M15.4 5.5L9.8 4l3.3 8.4 5.5 1.5z"/><path class="st1" d="M6.9 11.1l3.2 8.3 6.2 1.4-3.2-8.4zm9.4 9.7l3.2 8.3 5.6 1.5-3.2-8.4z"/><path class="st1" d="M16.6 36.2l6.1 1.3-3.2-8.4-6.1-1.3zM25.5 23l-3.3-8.3-3.6-.8 3.3 8.3zm-.4 7.6l3.2 8.4 3.6.8-3.2-8.4zm13.3-19.3l-7.3-2 4.2 11 7.3 1.9zm-11.2 7.2l4.2 11 8.1 1.8-4.2-11zM54.9 35l-4.2-11-8.1-1.8 4.2 11z"/><path class="st1" d="M39.5 31.3l4.2 11 7.3 1.9-4.2-11zm.4 20.2l8.1 1.7-4.3-10.9-8-1.8zM51 44.2l4.3 11 8 1.7L59.1 46zm-1.1-25l6 1.3-2.2-5.6-7.3-1.9 4.3 11 1.2.3zM70.8 24l.4.1-2.1-5.5-7.3-1.9 2.1 5.5zM60.4 46.3l-4.3-11-1.2-.3 4.2 11zm9.7-19.9l-7.3-2 4.3 11 7.3 2zM59 33.7l4.2 11 8.1 1.7-4.2-11zm26.5-3.6l-7.3-2 4.2 11 7.3 1.9zm1.2 20l-4.3-11-8-1.7 4.2 10.9zm14.2-16.4l-7.3-1.9 4.2 11 7.3 1.9zm1.1 20.1l-4.2-11-8.1-1.8L94 52zm-30.7-7.4l4.2 11 7.3 1.9-4.2-11z"/><path class="st1" d="M71.7 66.6l8 1.8-4.2-11-8.1-1.8zm15-16.5l4.2 11 7.3 1.9L94 52zm.3 20.2l8.1 1.8-4.2-11-8.1-1.8zm26.6-3.6l-4.3-11-7.3-1.9 4.3 11z"/><path class="st1" d="M98.2 63l4.2 11 8.1 1.7-4.2-10.9z"/><path class="st0" d="M366.6 31.8l8.8-2.3 8.1-1.8 7.3-1.9 4.4-1 3.2-8.1 8.8-2.3 8.1-1.8 7.2-1.9 8.2-1.8 7.2-1.9 13.7-3-.1.2 2.3-.5 5.5-1.4L469.7 0l-14.8 38.6-7.4 1.6-5.5 1.5-5.4 1.2-4.5 11.8-9.6 2.1-7.3 1.9-8.1 1.8-3.6.9-3.2 8.4-9.6 2.1-7.2 1.9-8.2 1.8-7.2 1.9-8.1 1.8-13 3.4z"/><path class="st1" d="M454.3 5.5l5.6-1.5-3.2 8.4-5.6 1.5z"/><path class="st1" d="M462.8 11.1l-3.2 8.3-6.2 1.4 3.3-8.4zm-9.4 9.7l-3.2 8.3-5.5 1.5 3.2-8.4zm-.2 15.4l-6.2 1.3 3.2-8.4 6.2-1.3z"/><path class="st1" d="M444.3 23l3.2-8.3 3.6-.8-3.2 8.3zm.4 7.6l-3.3 8.4-3.6.8 3.2-8.4zm-13.3-19.3l7.3-2-4.3 11-7.3 1.9zm11.1 7.2l-4.2 11-8.1 1.8 4.2-11zM414.8 35l4.3-11 8-1.8-4.2 11z"/><path class="st1" d="M430.2 31.3l-4.2 11-7.3 1.9 4.2-11zm-.4 20.2l-8 1.7 4.2-10.9 8.1-1.8zm-11.1-7.3l-4.2 11-8.1 1.7 4.2-10.9zm1.1-25l-5.9 1.3 2.1-5.6 7.3-1.9-4.2 11-1.3.3zM398.9 24l-.4.1 2.1-5.5 7.3-1.9-2.1 5.5zm10.5 22.3l4.2-11 1.2-.3-4.2 11zm-9.8-19.9l7.3-2-4.2 11-7.3 2zm11.2 7.3l-4.3 11-8 1.7 4.2-11zm-26.6-3.6l7.3-2-4.2 11L380 41zm-1.1 20l4.2-11 8.1-1.7-4.2 10.9zm-14.2-16.4l7.3-1.9-4.3 11-7.3 1.9zM367.7 53.8l4.2-11L380 41l-4.2 11zm30.8-7.4l-4.3 11-7.3 1.9 4.3-11z"/><path class="st1" d="M398.1 66.6l-8.1 1.8 4.2-11 8.1-1.8zm-15-16.5l-4.3 11-7.3 1.9 4.3-11z"/><path class="st1" d="M382.7 70.3l-8.1 1.8 4.2-11 8.1-1.8zm-26.5-3.6l4.2-11 7.3-1.9-4.2 11z"/><path class="st1" d="M371.5 63l-4.2 11-8.1 1.7 4.3-10.9z"/><linearGradient id="SVGID_1_" gradientUnits="userSpaceOnUse" x1="127.934" y1="37.841" x2="101.57" y2="64.205"><stop offset="0" stop-color="#fce381"/><stop offset="1" stop-color="#f09b20"/></linearGradient><path class="st2" d="M147 74.1c-2.3-.5-4.6-1.1-6.9-1.8-1.1-.8-2.4-1.2-3.8-1.3-.8-.3-1.7-.6-2.5-1h-.1c1.7-1.3 8.2-7.3 2-14.9-6 3.9-6.8 10.6-3.4 14.3-2.3-1-4.5-2.1-6.7-3.4h.3c1.4-1.1 8.6-7.2 2.2-15-6.2 4-6.8 11.2-2.9 14.7-1.2-.7-2.4-1.5-3.6-2.2-1.1-.8-2.3-1.6-3.4-2.4h.3c1.2-.9 7.1-5.9 1.8-12.4-4.9 3.2-5.6 8.7-2.8 11.7-2.3-1.8-4.5-3.7-6.5-5.7-1.8-1.8-3.5-3.6-5.1-5.6h.1c1.3-.7 8-4.6 3.9-11.9-5 2.1-6.7 6.8-5.2 10.3-.9-1.1-1.7-2.2-2.5-3.4-.5-.7-.9-1.4-1.4-2.1 1.6-.6 7.5-3.4 4.8-10.2-4.4 1.2-6.6 4.7-6.2 7.9-.9-1.5-1.7-3.1-2.5-4.7h.1c1.2-.3 7.7-2.2 5.8-9.2-4.7.7-7.2 4.3-6.6 7.6-.2-.4-.4-.9-.6-1.3l-1.5-3.9c1.4-.3 7.6-2.2 5.8-9.1-4.1.6-6.6 3.5-6.7 6.4-.4-1.4-.8-2.7-1.1-4.1l.1.1c1.2-.3 7.8-2.1 5.9-9.1-4 .6-6.4 3.3-6.7 6.1-.4-1.9-.7-3.8-.9-5.7.1.3.2.5.3.7l.3.2c1-.2 6.6-1.8 5-7.7-3.5.5-5.6 3-5.7 5.4-.2-2-.3-4.1-.4-6.1 0 3.4.2 6.9.7 10.3-1.1-2.8-4.9-4.1-8.6-2 2.5 5.7 7.8 3.4 8.8 3v-.1c.1.9.3 1.7.4 2.6.2 1.3.5 2.5.9 3.8-1.7-3-6.2-4-10.2-1.1 3.6 6.3 9.5 3.1 10.6 2.4.6 2.1 1.2 4.2 2 6.2-1.2-3.3-5.6-5.1-10.1-2.7 2.7 6.7 9 4.3 10.2 3.8l.1-.3c0-.2-.1-.5-.2-.7.2.6.5 1.2.7 1.9.6 1.4 1.2 2.7 1.9 4.1-2.2-2.3-6.4-2.7-10.1 0 3.9 6.6 10.1 3.1 11.2 2.3v-.1c2.3 4.3 5.1 8.4 8.3 12.1-2.8-1.6-7-1.1-10.2 2.4 5.5 6.3 11.4 1.3 12.5.3v-.1c.6.6 1.2 1.3 1.8 1.9.7.7 1.4 1.3 2.1 2-3.6-1.8-8.6.1-10.6 5.5 7.5 3.7 11-3.2 11.6-4.6 4.3 3.8 9.1 7 14.2 9.7-4.4-1.3-9.8 1.6-11.5 8 9.4 3.7 13-5 13.6-6.7l-.2-.4c1.3.6 2.5 1.2 3.8 1.7.4.2.9.3 1.4.5-3.5.4-7 3.1-8.5 7.8 9.1 4.1 13.1-4.3 13.8-6 2.2.6 4.4 1.2 6.6 1.6 4.5.8 9.2 1.2 13.8 1.1-4.7 0-9.3-.5-13.8-1.4zm-4.4-1.1h.5c1.3-1.1 8.1-7.7 1.2-15.1-6 4.5-6.1 11.9-1.7 15.1zm-30.5-17.5l.4.1c1.2-.9 7.1-5.9 1.8-12.4-5.2 3.4-5.6 9.5-2.2 12.3zm9.3 9.1l-.2-.5c-4.3-3.4-11.3-1.3-14 5.7 9 4.7 13.5-3.6 14.2-5.2zm-18.6-17.8v-.4c-2.2-3.9-8.2-4.6-12.5 0 5.4 6.3 11.4 1.3 12.5.4z"/><linearGradient id="SVGID_2_" gradientUnits="userSpaceOnUse" x1="386.295" y1="15.923" x2="315.831" y2="86.386"><stop offset="0" stop-color="#fce381"/><stop offset="1" stop-color="#f09b20"/></linearGradient><path class="st3" d="M322.7 73.1h.5c4.4-3.2 4.3-10.5-1.8-15-6.8 7.4 0 13.9 1.3 15zm30.6-17.4l.4-.1c3.4-2.9 3-8.9-2.2-12.3-5.3 6.5.6 11.5 1.8 12.4zm-8.7 8.6l-.2.5c.8 1.6 5.2 9.9 14.2 5.2-2.7-7.1-9.8-9.1-14-5.7zM363 46.5v.4c1.1 1 7.1 5.9 12.5-.4-4.2-4.6-10.3-3.9-12.5 0zm10.4-22.1c1.1.7 7 3.9 10.6-2.4-4-2.9-8.5-1.9-10.2 1.1.3-1.3.6-2.5.9-3.8.2-.9.3-1.7.4-2.6v.1c1 .5 6.3 2.7 8.8-3-3.7-2.2-7.5-.8-8.6 2 .5-3.4.7-6.9.7-10.3 0 2-.2 4.1-.4 6.1-.1-2.5-2.2-4.9-5.7-5.4-1.5 6 4 7.5 5 7.7l.3-.2c.1-.2.2-.5.3-.7-.2 1.9-.5 3.8-.9 5.7-.3-2.8-2.7-5.5-6.7-6.1-1.8 7 4.7 8.8 5.9 9.1l.1-.1c-.3 1.4-.7 2.8-1.1 4.1-.1-2.9-2.5-5.8-6.7-6.4-1.9 6.9 4.4 8.8 5.8 9.1l-1.5 3.9c-.2.4-.4.9-.6 1.3.6-3.2-1.9-6.8-6.6-7.6-1.9 7 4.6 8.9 5.8 9.2h.1c-.8 1.6-1.6 3.2-2.5 4.7.4-3.2-1.8-6.7-6.2-7.9-2.7 6.8 3.2 9.6 4.8 10.2-.5.7-.9 1.4-1.4 2.1-.8 1.2-1.6 2.3-2.5 3.4 1.5-3.4-.2-8.1-5.2-10.3-4.1 7.3 2.6 11.2 3.9 11.9h.1c-1.6 2-3.3 3.8-5.1 5.6-2.1 2-4.2 3.9-6.5 5.7 2.8-3 2.1-8.5-2.8-11.7-5.3 6.4.6 11.5 1.8 12.4h.3c-1.1.8-2.2 1.6-3.4 2.4-1.2.8-2.4 1.5-3.6 2.2 3.9-3.5 3.3-10.7-2.9-14.7-6.4 7.8.8 13.9 2.2 15h.3c-2.2 1.2-4.4 2.4-6.7 3.4 3.4-3.7 2.6-10.4-3.4-14.3-6.2 7.6.4 13.5 2 14.9h-.1c-.8.3-1.7.7-2.5 1-1.3.1-2.6.5-3.8 1.3-2.3.7-4.6 1.3-6.9 1.8-4.5.9-9.1 1.4-13.7 1.5 4.6.1 9.2-.3 13.8-1.1 2.2-.4 4.4-.9 6.6-1.6.7 1.7 4.7 10.1 13.8 6-1.5-4.8-5-7.4-8.5-7.8.5-.2.9-.3 1.4-.5 1.3-.5 2.6-1.1 3.8-1.7l-.2.4c.6 1.7 4.2 10.4 13.6 6.7-1.7-6.4-7.1-9.3-11.5-8 5.1-2.6 9.9-5.9 14.2-9.7.6 1.3 4.1 8.2 11.6 4.6-1.9-5.4-7-7.3-10.6-5.5.7-.7 1.4-1.3 2.1-2 .6-.6 1.2-1.2 1.8-1.9v.1c1.1 1 7 6 12.5-.3-3.2-3.5-7.4-4-10.2-2.4 3.2-3.8 6-7.8 8.3-12.1v.1c1.1.7 7.3 4.3 11.2-2.3-3.7-2.8-7.8-2.3-10.1 0 .7-1.3 1.3-2.7 1.9-4.1.3-.6.5-1.2.7-1.9-.1.2-.1.4-.2.7l.1.3c1.2.5 7.5 2.9 10.2-3.8-4.4-2.4-8.9-.6-10.1 2.7.7-2.2 1.3-4.3 1.9-6.3z"/><path class="st4" d="M117.1 92.7H89.2s5-4.2 5-14.3-5-14.3-5-14.3h27.9v28.6z"/><path class="st5" d="M98.5 87.3l18.6 5.4v-8z"/><path class="st4" d="M350.2 92.7h27.9s-5-4.2-5-14.3 5-14.3 5-14.3h-27.9v28.6z"/><path class="st5" d="M368.7 87.3l-18.6 5.4v-8z"/><path class="st6" d="M98.5 58.8h270.2v28.5H98.5z"/></svg>